<svg xmlns="http://www.w3.org/2000/svg" class="ww hh" radial=""> <g stroke="none" fill="#4a4a51" stroke-width="1px"> <defs>  <radialGradient id="background18551"> <stop offset="0" stop-color="#ffffff" stop-opacity="1"></stop><stop offset="1" stop-color="#f6f9fd" stop-opacity="1"></stop> </radialGradient> </defs> <rect x="0" y="0" width="100%" height="100%" fill="url(&quot;#background18551&quot;)" stroke="none" stroke-width="1px"></rect> </g> <g transform="matrix(2.136111111111111 0 0 2.136111111111111 0 12.315104166666657)" stroke="none" fill="#4a4a51" stroke-width="1px"> <g stroke="none" fill="#4a4a51" stroke-width="1px"> <g stroke="none" fill="#4a4a51" stroke-width="1px"> <g is="lm-picture" stroke="none" fill="#4a4a51" stroke-width="1px">  <g transform="matrix(0.4150197628458498 0 0 0.4150197628458498 69 36.87154150197628)" stroke="none" fill="#4a4a51" stroke-width="1px"> <g transform="matrix(1 0 0 1 0 0)" stroke="none" fill="#4a4a51" stroke-width="1px"> <defs> <linearGradient x1="0" y1="0" x2="0" y2="1" id="gradient18545" gradientTransform="rotate(-180 .5 .5)"> <stop offset="0" stop-color="#37AA00" stop-opacity="1"></stop><stop offset="1" stop-color="#CFFF00" stop-opacity="1"></stop> </linearGradient>  </defs> <path fill="url(&quot;#gradient18545&quot;)" d="M98.7 48.2Q99.7 46.75 99.95 45.45 100.15 44.4 99.9 43 99.7 41.85 97.3 39.95 95.15 38.25 93.6 37.6 91.8 36.85 90.9 36.3 89.4 35.4 88.9 34.4 88.25 33.05 87.35 32.05 86.15 30.8 84.85 30.4 83.7 30.05 81.85 30.85 78.85 32.1 78.6 32.2 77.6 32.45 73.1 32.15 68.4 31.8 65.75 32.35 62.75 32.95 58.15 34.85L54.15 36.6Q50 32.4 47.95 31 46.65 30.1 44.5 29.3L42.6 28.7 43.85 27.55Q45.1 26 45.05 23.85 45 21.6 44.2 19.95 43.1 18.15 42.4 17 41.75 15.95 38.45 14.4 35.2 12.9 34.5 11.65 33.3 9.15 32.65 6.05L32.2 3.45 31.55 6.95Q30.95 10.7 31.25 12.4 31.5 13.8 33.1 16.1 34.6 18.3 34.75 19.4 35 21.15 32.55 24.45 30.1 27.85 28 28.35 25.9 28.85 22.95 30.75 20.3 32.5 18.25 34.5 16.35 32.3 13.95 32.9 12.95 33.15 9.65 35.1 7.55 36.3 7.1 38.85 6.65 41.25 7.95 42.4 8.45 42.85 7.55 43.05 7.35 43.1 5.25 43.3 1.5 43.65 1.9 45.2 2.25 46.8 6.55 45.8 7.65 45.55 9.6 45.05 11.1 44.8 11.35 45.2 10.75 47.25 12.25 52.2 13.7 56.9 15.75 60.1 17.65 63.1 21.25 65.4 24.3 67.3 26.85 67.75 26.75 68.4 26.1 69.9 25.4 71.4 25.3 72.8 25.15 74.75 27.2 76.65 29.4 78.6 33.4 79.75 37.05 80.85 38.2 81.85 38.95 82.55 38.65 83.45 37.9 84.65 33.5 84.8 29 85 28.3 86.15 27.3 87.75 28.1 88.9 28.7 89.8 30 89.95 30.55 89.95 33.9 88.05 37 86.25 37.55 86.7 38.15 87.1 36.3 90.1 34.25 93.5 34.15 94.15 34.05 95.3 35.7 95.5 37.25 95.7 37.75 95.1 38.45 92.85 39.15 91.05 40.65 87.5 42.6 87.7 43.65 87.8 44.45 88.7 44.8 89.15 45.65 90.45 46.3 91.5 46.8 91.8 47.5 92.2 48.45 91.55 50.15 90.5 48.45 88.35 47.5 87.3 47.15 86.85 46.55 86.1 46.75 85.75 47.1 85.2 51.05 85.8 55.1 86.45 55.6 85.9 56.25 85.2 56.15 84.3 56.1 83.8 55.6 82.75 55.35 82.2 52.15 82.1 49 82.05 49 81.8 48.95 81.6 51.25 81.05 53.7 80.45 54.1 79.85 54.65 79.1 53.9 78.25 53.15 77.45 51.85 77.55 50.95 77.65 48.7 78.55 46.25 79.55 45.55 79.7 44.55 79.9 41.7 76.95L39.1 74 42.5 73.15Q46 72.1 46.75 71.2 47.15 70.7 47.35 71.05 47.4 71.2 47.6 72.15 48 74.05 49.05 73.75 50.1 73.4 50.85 71.8 51.65 70.2 52.45 69.9 53.05 69.7 54.1 70.35 54.75 70.75 56.15 71.75 58.9 73.65 60.15 72.2 60.55 71.35 58.85 69.8 57.15 68.3 57.4 67.8 57.6 67.4 58.9 67.7L61.65 68.45Q65.75 69.6 66.6 68.4 67.55 67 63.45 65.9L59.2 65.05Q60.8 64.3 62.5 63.35 66 61.5 66.6 60.6 67.15 59.85 68.95 59.65 70.95 59.5 71.35 59.15 71.9 58.75 73.85 57.05 75.75 55.5 76.65 55.1 77.5 54.7 83.45 54 89.95 53.2 90.85 52.95 92.75 52.5 95.1 51.1 97.7 49.6 98.7 48.2Z" stroke="none" stroke-width="1px"></path> </g><g transform="matrix(1 0 0 1 0 0)" stroke="none" fill="#4a4a51" stroke-width="1px"> <defs> <linearGradient x1="0" y1="0" x2="0" y2="1" id="gradient18546" gradientTransform="rotate(-90 .5 .5)"> <stop offset="0" stop-color="#FFFFFF" stop-opacity="1"></stop><stop offset="1" stop-color="#FFFFFF" stop-opacity="1"></stop> </linearGradient>  </defs> <path fill="url(&quot;#gradient18546&quot;)" d="M87.8 44.25Q87.55 43.45 85.95 42.15 84.1 40.7 81.75 39.65 75.15 36.8 69.2 39.25 70.65 41.5 71.4 42.2 72.8 43.5 75.15 43.65 87.7 44.7 87.8 44.25Z" stroke="none" stroke-width="1px"></path> </g><g transform="matrix(1 0 0 1 0 0)" stroke="none" fill="#4a4a51" stroke-width="1px"> <defs> <linearGradient x1="0" y1="0" x2="0" y2="1" id="gradient18547" gradientTransform="rotate(-180 .5 .5)"> <stop offset="0" stop-color="#FFAD00" stop-opacity="1"></stop><stop offset="1" stop-color="#FFFF00" stop-opacity="1"></stop> </linearGradient>  </defs> <path fill="url(&quot;#gradient18547&quot;)" d="M74.4 43.6Q75.4 43.8 77.15 43.85 77.75 43.85 79.4 44.2 80.85 44.4 81.5 43.85 82.2 43.15 82.2 41.65 82.15 40.25 81.5 39.55 80.9 39 77.95 38.5 75.25 38.1 74.3 38.2 73.55 38.3 72.8 39.65 72.05 41.15 72.3 42.25 72.5 43.25 74.4 43.6Z" stroke="none" stroke-width="1px"></path> </g><g transform="matrix(1 0 0 1 0 0)" stroke="none" fill="#4a4a51" stroke-width="1px"> <defs> <linearGradient x1="0" y1="0" x2="0" y2="1" id="gradient18548" gradientTransform="rotate(-90 .5 .5)"> <stop offset="0" stop-color="#163509" stop-opacity="1"></stop><stop offset="1" stop-color="#163509" stop-opacity="1"></stop> </linearGradient>  </defs> <path fill="url(&quot;#gradient18548&quot;)" d="M85.75 30.1Q84.35 29.55 82.9 29.8 82.15 29.95 81.2 30.4 80.15 30.95 79.55 31.2 78.4 31.65 76.6 31.6 76.35 31.6 73.6 31.4 68.85 31.05 63.95 32.1 59.25 33.15 54.8 35.4L54.45 35.6Q51.35 32.75 49.75 31.5 47.1 29.4 44.5 28.6 44.8 28.25 45 27.9 46.85 24.55 45.4 20.45 44.1 16.5 40.75 14.55 38.2 13.4 36.95 12.75 34.75 11.6 34.15 9.8 33.8 8.85 33.65 7.35 33.5 5.65 33.4 4.8 33 1.7 31.25 0 31.6 1 30.95 5.5 30.25 10.35 30.5 12.25 30.75 14.3 32.05 16.8 32.2 17.1 32.9 18.1 33.45 18.9 33.7 19.45 33.95 20.25 33.3 21.45 33.1 21.8 32.15 23.2 30.75 25.25 30.6 25.45 29.6 26.75 28.6 27.35 28 27.7 26.6 28.15 25.15 28.55 24.55 28.85 21.95 30.1 18.25 33.35 15.9 31.7 12.65 32.6 9.75 33.4 7.6 35.6 6.5 36.8 6.05 38.2 5.6 39.75 6.15 41.15 6.3 41.55 6.55 41.85 3.65 42.2 2.15 43.1 0 44.35 1.75 46.3 2.45 47.05 3.95 47.1 4.75 47.1 6.35 46.8 7 46.7 8.4 46.25 9.8 45.85 10.5 45.75 10.05 52.95 14.55 59.8 19.15 66.8 25.9 68.6 25.25 69.4 24.85 70.2 23.85 72.4 24.7 74.6 25.5 76.55 27.55 77.95 29.05 78.95 32.1 80.05 35.45 81.2 36.7 81.95 38.55 83 36.75 83.6 35.45 84 33.65 84 30.9 84 30.2 84.1 28.1 84.4 27.3 85.7 26.6 86.8 26.7 87.95 26.8 89.25 27.8 89.95 29.35 90.95 31.05 90.5 32.2 90.2 34.05 88.9 34.2 88.85 35.7 88.1 36.8 87.6 36.9 87.25 36.8 87.7 36.45 88.3 36.45 88.35 35.85 89.25 35.6 89.7 34.5 91.15 33.6 92.25 33.2 93.05 32.2 95.1 34.45 96.05 36.65 97 38.05 95.6 38.5 95.15 38.75 94.35 38.85 94.05 39.05 93 39.35 91.8 40.35 90.35 41.6 88.5 42.65 88.65 43.35 88.75 44.5 90.35 45.75 92 46.4 92.3 47.5 92.75 48.95 92.25 50.5 91.65 50.4 90.35 50.3 89.25 49.5 88.15 49.2 87.7 48 86.35 49.5 86.3 53.7 86.95 57.15 87.05 57.15 84.45 57.2 82.6 55.8 81.95 54.8 81.5 52.6 81.5 54.3 81.05 54.85 79.95 55.6 78.5 54.5 77.35 53.4 76.3 51.85 76.6 50.8 76.8 49.45 77.35 47.9 78 47.1 78.35 45.3 79.1 43.8 78.05 42.9 77.45 41.3 75.45L40.65 74.65Q43.15 74.1 45.95 72.6 46.15 73.55 46.8 74.15 47.45 74.85 48.4 74.9 50.5 75.05 51.45 73.3 51.8 72.1 52.05 71.5 52.6 70.35 53.5 70.85 53.85 71.05 54.35 71.55 54.6 71.85 55.1 72.35 56.35 73.55 58.2 73.55 60.25 73.6 60.85 71.9 61.2 71 60.8 70.15 60.45 69.5 59.6 68.8 63.15 70.1 63.7 70.2 65.95 70.6 67.15 69 69.05 66.5 61.95 64.8 62.7 64.45 63.3 64 63.85 63.65 64.95 62.65 66 61.75 66.6 61.35 67.4 60.85 68.95 60.6 70.65 60.3 71.3 60 72.15 59.65 72.95 59.05 73.5 58.6 74.35 57.75 75.15 56.95 76.3 56.45 77.1 56.1 78.55 55.7 80.2 55.25 82.65 54.9 84.05 54.75 86.8 54.4 91.05 53.85 93.7 52.7 97.2 51.25 99.3 48.45L99.3 48.4Q100.6 47.4 100.9 45.85 101.2 44.25 100.25 42.35 99 39.95 95.55 37.9 94.95 37.5 93.65 36.85 92.35 36.2 91.7 35.8 90.65 35.2 89.65 34 88.6 32.55 88 31.8 87.1 30.65 85.75 30.1M87.25 33.6Q88.4 35.3 88.45 35.4 89.35 36.45 91.45 37.65 92.8 38.45 95.5 39.95 97.65 41.4 98.75 43.25 100.45 46.05 97.7 47.3 95.85 48.2 92.6 48.1 90.55 48.1 87.3 48.25 83 48.45 81.95 48.45 80 48.5 76.7 47.85 72.9 47.1 71.5 47.05 65.5 46.65 61.25 52.05 65 48.8 69.2 48.6 71.2 48.5 76.55 49.65 79.95 50.4 84.7 50.05 86.65 49.95 89.75 49.9 93.8 49.9 94.85 49.85 95.05 49.85 95.55 49.8 93.35 51.4 89.75 52.15 88.3 52.5 83.45 53.1 79.4 53.6 76.85 54.35 75.4 54.8 73.85 56.05 71.5 57.95 71.2 58.15 70.45 58.65 68.95 58.95 67.05 59.3 66.6 59.45 65.5 59.85 63.9 61.25 62.15 62.75 59.65 63.8 59.45 63.9 54.95 65.55 54.25 65.8 52.25 67.1 49.05 69.1 48.25 69.55 42.5 72.95 39.15 73.15L37.35 71.5Q36.25 70.5 35.15 69.7 33.75 68.75 33.2 68.8 34.2 69.4 35.9 71.4 36.95 72.6 39.15 75.35 43.4 80.6 45.6 80.55 46.2 80.55 47 80.25 47.2 80.15 48.3 79.7 49.15 79.35 50.8 78.65 51.15 78.5 52.45 78.45 53.9 78.45 53.3 79.15 52.6 79.95 50.55 80.35 48.1 80.8 47.5 81.15 47.1 81.4 47.1 81.9 47.1 82.45 47.5 82.65 47.9 82.85 49.4 83 50.3 83.05 52.25 83.15 55.9 83.5 55.3 84.8 55 85.5 52.75 85.25 50.4 84.8 49.95 84.7 48.7 84.55 47.9 84.6 46.85 84.65 46 85.1 45.7 85.25 45.6 85.6 45.5 86 45.7 86.25 45.9 86.6 47.6 88.5 49 90.35 48 90.7 46.9 91.05 45.75 89.55 44.2 87.55 43.9 87.4 43 86.8 42.05 87 41.3 87.2 40.35 87.95 39.05 89 38 90.95 37.95 91.1 37.35 93.1 37 94.5 36.25 94.75 35.3 95.1 35.1 94.35 34.85 93.65 35.35 93L36.65 91.2Q37.5 90 37.85 89.45 38.45 88.35 38.6 87.45 39 85 35.9 86.15 34.1 86.8 32.05 88.15 31.65 88.4 31.5 88.5 29.75 89.5 28.95 88.05 28.6 87.5 28.85 86.9 29.1 86.25 29.9 85.95 30.5 85.7 32.25 85.7 32.85 85.7 34.15 85.7 35.25 85.75 36 85.6 37.55 85.35 38.25 84.9 39.35 84.3 39.45 83.05 39.55 81.55 37.6 80.4 36.9 79.95 34.4 79.05 30.05 77.45 29.5 77.15 26.7 75.75 26.15 73.55 25.3 70.3 30.55 66.05 32.15 64.7 34.2 63.45L35.95 62.45Q32.6 63.95 32.1 64.2 28.85 65.8 27.3 67.15L27.25 67.1Q22.65 66.2 18.75 62.2 15.05 58.45 13.3 53.35 11.45 48.05 12.55 43.5 13.7 38.4 18.25 35.65L18.4 35.5 18.45 35.5Q21 33.2 22.65 32.05 25.15 30.25 27.45 29.55 29.5 28.95 31 27.4 31.75 26.65 33.65 24.05 34.45 23 34.9 22.1 35.35 21 35.5 19.85 35.55 18.9 34.85 17.75 33.9 16.45 33.55 15.9 32.45 14.25 32.1 11.95 31.9 10.25 32.05 7.65 32.25 9.65 32.65 10.85 33.15 12.3 34.7 13.4 35.65 14.1 37.6 15 40.25 16.15 41.65 17.55 43.3 19.2 43.95 21.7 44.3 23.15 44.1 24.7 43.9 26.25 43.2 27.55 42.8 28.3 41.55 28.05 40.15 27.55 39.65 27.45 38.65 27.15 37.65 27.35 36.45 27.65 35.95 28.5 35.15 29.95 35.7 31.4 36.1 32.5 37.45 33.95 39.45 36.1 40.95 39.85 42.5 43.55 42.05 45.3 43.8 44.85 48.5 41.75 55.55 36.95 55.7 36.9 57.9 35.55 61 34.65 63.1 34 66.6 33.4 68.75 33 71.75 33.1 73.45 33.15 76.85 33.3 77.85 33.3 81.4 32.1 84.2 31.2 85.8 32.05 86.5 32.4 87.25 33.6M42.15 29.85Q45.15 30.2 48.05 32.3 48.8 32.85 52.85 36.5 51.8 37.15 50.65 38 48.8 39.6 47.6 40.5 45.25 42.25 43.85 42.25 43.55 40.8 42.2 38.05 40.75 35.2 39.55 33.7 38.05 31.9 37.6 31.1 36.55 29.05 38.6 29 39.15 29 39.95 29.25 40.4 29.45 41.25 29.7 41.65 29.8 42.1 29.8L42.15 29.85M12.05 34.6Q14.9 33.4 16.85 34.5 12 37.7 10.8 43.45 8.75 41.95 8.15 41.05 7.2 39.5 8.25 37.65 9.4 35.7 12.05 34.6M4.7 45.3Q3.6 45.35 3.1 44.95 2.55 44.5 3.9 44.05 5.45 43.55 7.75 43.5 7.95 43.5 8 43.45L9.05 44.3Q7.6 44.7 6.9 44.85 5.65 45.2 4.7 45.3M65.3 68.3Q64.85 68.45 64.15 68.4 63 68.35 60.75 67.5 58.45 66.65 57.3 66.55L59.1 65.95Q61.4 66.5 62.55 66.8 64.1 67.2 65.15 67.7 65.9 68.1 65.3 68.3M51.3 69.5Q50.9 69.8 50.7 70.15 50.5 70.45 50.35 70.9L50.15 71.5Q50.05 73.1 48.75 70.95 52.75 68.5 54.25 67.75 54.85 67.45 55.45 67.2 55.35 67.75 55.7 68.05 56.15 68.55 57.35 69.35 58.5 70.15 59 70.65 59.65 71.85 57.9 71.9 57.5 71.95 57.05 71.7 56.75 71.5 56.35 71.15 55.35 70.15 54.85 69.7 53.55 68.6 52.05 69.1 51.65 69.2 51.3 69.5M83.1 44.65Q86.8 44.65 88.9 45.2 87.15 40.9 82 39.05 79.1 38 74.45 37.65 72.1 37.45 69.95 38.2 68.05 38.9 68.25 39.1 69.2 42.05 71.65 43.4 73.6 44.45 77 44.65 77.45 44.7 83.1 44.65M84.15 41.65Q85.65 42.65 86.25 43.65 84.65 43.35 82.35 43.35 82.55 42.95 82.7 42.1 82.8 41.25 82.8 40.85L84.15 41.65M71.45 41.4Q70.2 40.2 69.95 39.45 70.35 39.25 71.05 39.15 71.7 39.05 72.3 39.05 72.05 39.4 71.8 40.2 71.55 40.9 71.45 41.4M81.1 40.25Q81.4 40.65 81.45 41.4 81.55 42.45 81.15 42.85 80.9 43.05 80.25 43.2 78.7 43.55 77.9 43.45 77.9 43.35 78.05 39.25L78.8 39.4Q79.55 39.55 80.05 39.7 80.8 39.95 81.1 40.25M74.65 43Q73.55 42.7 73.15 42.25 72.75 41.75 73.15 40.4 73.55 39.05 74 38.95 74.95 38.8 76.6 39.1 76.5 39.7 76.4 41.05 76.3 42.4 76.25 43.25 75.5 43.25 74.65 43Z" stroke="none" stroke-width="1px"></path> </g><g transform="matrix(1 0 0 1 0 0)" stroke="none" fill="#4a4a51" stroke-width="1px"> <defs> <linearGradient x1="0" y1="0" x2="0" y2="1" id="gradient18549" gradientTransform="rotate(-90 .5 .5)"> <stop offset="0" stop-color="#FFFFFF" stop-opacity="0.3"></stop><stop offset="1" stop-color="#FFFFFF" stop-opacity="0.6"></stop> </linearGradient>  </defs> <path fill="url(&quot;#gradient18549&quot;)" d="M15.35 42.3Q15.15 41.85 14.9 42.3 14.2 43.45 14.1 46.2 14.05 49.4 15.1 52.55 17.95 61.35 27.3 64.8L32.6 62.4Q21.35 61.15 17.4 50.6 16.45 48.05 15.7 44 15.45 42.65 15.35 42.3M85.55 38.1Q86.05 38.35 93.3 42.15 97.7 44.45 97.05 43.15 96.5 42 92.5 40.1 88.25 38.1 87.75 37.55 87.7 37.45 86.3 35 85.4 33.5 84.3 33.2 83.3 32.9 81.1 33.65 78.65 34.5 77.85 34.5 64.3 34.5 59.15 36.8 57.35 37.65 50.15 42.6 44.2 46.7 41.25 47 41.2 43.4 38.1 37.65 36.55 34.75 35 32.6 36.2 35.2 36.75 38.9 37 40.65 37.25 45 37.5 48.4 37.9 49.75 38.5 51.7 39.9 51.95 42.3 52.35 49.65 46.55 51.6 45 55.35 41.95 58.45 39.6 60.15 38.85 64.3 36.95 72.45 36.55 81.05 36.2 85.55 38.1Z" stroke="none" stroke-width="1px"></path> </g> </g> </g><g is="lm-text" transform="matrix(1.3333333333333333 0 0 1.3333333333333333 50.74074172973633 104.83216206044234)" stroke="none" fill="#4a4a51" stroke-width="1px">   <path fill="#000000" fill-opacity="1" d="M7.777777777777778,6.222222222222222C7.333333333333333,6.222222222222222,6.888888888888888,6.222222222222222,6.5,6.166666666666667C6.111111111111111,6.111111111111111,5.611111111111111,6.055555555555555,5,5.888888888888889C5.166666666666666,5.555555555555555,5.388888888888888,5.277777777777778,5.722222222222222,5.055555555555555C6.055555555555555,4.833333333333334,6.388888888888888,4.722222222222222,6.833333333333333,4.777777777777778C6.833333333333333,4.777777777777778,7.333333333333333,4.777777777777778,7.333333333333333,4.777777777777778C7.333333333333333,4.777777777777778,7.777777777777778,4.777777777777778,7.777777777777778,4.777777777777778C8.444444444444443,4.777777777777778,9,4.666666666666667,9.555555555555555,4.333333333333334C10.11111111111111,4,10.61111111111111,3.555555555555556,11,3C11.388888888888888,2.4444444444444446,11.722222222222221,1.7777777777777777,11.944444444444445,1.0555555555555562C12.166666666666666,0.3333333333333339,12.333333333333332,-0.44444444444444375,12.333333333333332,-1.2777777777777777C12.333333333333332,-3.2222222222222214,11.833333333333332,-4.722222222222221,10.833333333333332,-5.777777777777777C9.833333333333332,-6.833333333333332,8.444444444444443,-7.333333333333332,6.444444444444444,-7.333333333333332C6.055555555555555,-7.333333333333332,5.611111111111111,-7.277777777777777,5.222222222222222,-7.277777777777777C4.833333333333333,-7.277777777777777,4.5,-7.277777777777777,4.166666666666666,-7.222222222222221C4.166666666666666,-7.222222222222221,4.166666666666666,6,4.166666666666666,6C4.166666666666666,6,2.2777777777777777,6,2.2777777777777777,6C2.2777777777777777,6,2.2777777777777777,-8.333333333333332,2.2777777777777777,-8.333333333333332C2.944444444444444,-8.5,3.6111111111111107,-8.555555555555555,4.388888888888889,-8.666666666666666C5.166666666666666,-8.777777777777777,5.833333333333333,-8.777777777777777,6.444444444444444,-8.777777777777777C7.722222222222221,-8.777777777777777,8.777777777777777,-8.61111111111111,9.777777777777777,-8.277777777777777C10.777777777777777,-7.944444444444443,11.61111111111111,-7.5,12.277777777777777,-6.833333333333332C12.944444444444443,-6.166666666666666,13.5,-5.3888888888888875,13.833333333333332,-4.444444444444445C14.166666666666666,-3.5,14.333333333333332,-2.4444444444444446,14.333333333333332,-1.2777777777777777C14.333333333333332,-0.16666666666666607,14.166666666666666,0.7777777777777777,13.833333333333332,1.7222222222222223C13.5,2.666666666666667,13,3.4444444444444446,12.388888888888888,4.111111111111111C11.777777777777777,4.777777777777778,11.11111111111111,5.277777777777778,10.333333333333332,5.666666666666667C9.555555555555555,6.055555555555555,8.666666666666666,6.222222222222222,7.777777777777778,6.222222222222222C7.777777777777778,6.222222222222222,7.777777777777778,6.222222222222222,7.777777777777778,6.222222222222222M23.444444444444443,6C23.11111111111111,5.666666666666667,22.888888888888886,5.277777777777778,22.77777777777778,4.944444444444445C22.666666666666664,4.611111111111111,22.666666666666664,4.166666666666667,22.666666666666664,3.7777777777777777C22.666666666666664,3.7777777777777777,22.666666666666664,-4.333333333333332,22.666666666666664,-4.333333333333332C22.666666666666664,-4.333333333333332,24.5,-4.333333333333332,24.5,-4.333333333333332C24.5,-4.333333333333332,24.5,3.5,24.5,3.5C24.5,3.888888888888889,24.5,4.222222222222222,24.555555555555554,4.666666666666667C24.611111111111107,5.111111111111111,24.72222222222222,5.555555555555555,24.833333333333332,6C24.833333333333332,6,23.444444444444443,6,23.444444444444443,6C23.444444444444443,6,23.444444444444443,6,23.444444444444443,6M18,3.166666666666667C18,3.611111111111111,18.166666666666664,4.055555555555555,18.333333333333332,4.333333333333334C18.5,4.611111111111111,18.77777777777778,4.777777777777778,19.22222222222222,4.777777777777778C19.388888888888886,4.777777777777778,19.555555555555554,4.777777777777778,19.666666666666664,4.722222222222222C19.77777777777778,4.666666666666667,19.944444444444443,4.666666666666667,20.11111111111111,4.611111111111111C20.5,4.5,20.833333333333332,4.5,21.166666666666664,4.555555555555555C21.5,4.611111111111111,21.833333333333332,4.888888888888889,22.11111111111111,5.166666666666667C21.388888888888886,5.611111111111111,20.833333333333332,5.833333333333333,20.333333333333332,6C19.833333333333332,6.166666666666667,19.388888888888886,6.222222222222222,19.055555555555554,6.222222222222222C18.666666666666664,6.222222222222222,18.27777777777778,6.166666666666667,17.944444444444443,6.055555555555555C17.61111111111111,5.944444444444445,17.27777777777778,5.777777777777778,17,5.5C16.72222222222222,5.222222222222222,16.555555555555554,4.944444444444445,16.38888888888889,4.555555555555555C16.22222222222222,4.166666666666667,16.166666666666664,3.611111111111111,16.166666666666664,3C16.166666666666664,3,16.166666666666664,-4.333333333333332,16.166666666666664,-4.333333333333332C16.166666666666664,-4.333333333333332,18,-4.333333333333332,18,-4.333333333333332C18,-4.333333333333332,18,3.166666666666667,18,3.166666666666667C18,3.166666666666667,18,3.166666666666667,18,3.166666666666667M31.777777777777775,6C31.777777777777775,6,26.72222222222222,-8.555555555555555,26.72222222222222,-8.555555555555555C26.72222222222222,-8.555555555555555,28.777777777777775,-8.555555555555555,28.777777777777775,-8.555555555555555C28.777777777777775,-8.555555555555555,32.666666666666664,3.388888888888889,32.666666666666664,3.388888888888889C32.666666666666664,3.388888888888889,32.83333333333333,4.055555555555555,32.83333333333333,4.055555555555555C32.83333333333333,4.055555555555555,33,3.4444444444444446,33,3.4444444444444446C33,3.4444444444444446,36.888888888888886,-8.555555555555555,36.888888888888886,-8.555555555555555C36.888888888888886,-8.555555555555555,38.888888888888886,-8.555555555555555,38.888888888888886,-8.555555555555555C38.888888888888886,-8.555555555555555,33.77777777777778,6,33.77777777777778,6C33.77777777777778,6,31.777777777777775,6,31.777777777777775,6C31.777777777777775,6,31.777777777777775,6,31.777777777777775,6M42,-8.555555555555555C42,-8.555555555555555,44.44444444444444,-8.555555555555555,44.44444444444444,-8.555555555555555C44.44444444444444,-8.555555555555555,48.33333333333333,3.166666666666667,48.33333333333333,3.166666666666667C48.33333333333333,3.166666666666667,48.5,3.7777777777777777,48.5,3.7777777777777777C48.5,3.7777777777777777,48.666666666666664,3.166666666666667,48.666666666666664,3.166666666666667C48.666666666666664,3.166666666666667,52.55555555555556,-8.555555555555555,52.55555555555556,-8.555555555555555C52.55555555555556,-8.555555555555555,55,-8.555555555555555,55,-8.555555555555555C55,-8.555555555555555,56.611111111111114,6,56.611111111111114,6C56.611111111111114,6,54.77777777777778,6,54.77777777777778,6C54.77777777777778,6,53.666666666666664,-5.666666666666666,53.666666666666664,-5.666666666666666C53.666666666666664,-5.666666666666666,53.55555555555556,-6.5,53.55555555555556,-6.5C53.55555555555556,-6.5,53.33333333333333,-5.666666666666666,53.33333333333333,-5.666666666666666C53.33333333333333,-5.666666666666666,49.388888888888886,5.777777777777778,49.388888888888886,5.777777777777778C49.388888888888886,5.777777777777778,47.611111111111114,5.777777777777778,47.611111111111114,5.777777777777778C47.611111111111114,5.777777777777778,43.611111111111114,-5.666666666666666,43.611111111111114,-5.666666666666666C43.611111111111114,-5.666666666666666,43.333333333333336,-6.5,43.333333333333336,-6.5C43.333333333333336,-6.5,43.27777777777778,-5.666666666666666,43.27777777777778,-5.666666666666666C43.27777777777778,-5.666666666666666,42.166666666666664,6,42.166666666666664,6C42.166666666666664,6,40.388888888888886,6,40.388888888888886,6C40.388888888888886,6,42,-8.555555555555555,42,-8.555555555555555" stroke="none" stroke-width="1px"></path> </g> </g> </g> </g> </svg>